<svg xmlns="http://www.w3.org/2000/svg" version="1.1" xmlns:xlink="http://www.w3.org/1999/xlink" width="512" height="512" x="0" y="0" viewBox="0 0 58 56" style="enable-background:new 0 0 512 512" xml:space="preserve" class=""><g><g fill="none" fill-rule="nonzero"><path fill="#f5efca" d="M50 13v12H8.109C5.289 25 3 22.312 3 19s2.289-6 5.109-6z" opacity="1" data-original="#f5efca"></path><path fill="#f29c1f" d="M52 26a2.006 2.006 0 0 1-2 2H9a9 9 0 0 1 0-18h41a2 2 0 0 1 0 4H9a5 5 0 0 0 0 10h41a2.006 2.006 0 0 1 2 2z" opacity="1" data-original="#f29c1f" class=""></path><rect width="54" height="14" x="4" y="28" fill="#7d6599" rx="2" opacity="1" data-original="#7d6599"></rect><rect width="54" height="14" y="42" fill="#e64c3c" rx="2" opacity="1" data-original="#e64c3c"></rect><rect width="54" height="10" fill="#3b97d3" rx="2" opacity="1" data-original="#3b97d3"></rect><path fill="#67b9cc" d="M8 0h4v10H8zM42 0h4v10h-4z" opacity="1" data-original="#67b9cc"></path><rect width="24" height="6" x="19" y="32" fill="#9fc9d3" rx="1" opacity="1" data-original="#9fc9d3"></rect><path fill="#b49aca" d="M48 28h2v14h-2zM12 28h2v14h-2z" opacity="1" data-original="#b49aca"></path><ellipse cx="27" cy="49" fill="#f5efca" rx="9" ry="3" opacity="1" data-original="#f5efca"></ellipse><g fill="#f29c1f"><path d="M6 42h4v14H6zM44 42h4v14h-4z" fill="#f29c1f" opacity="1" data-original="#f29c1f" class=""></path></g></g></g></svg>