<!DOCTYPE svg PUBLIC "-//W3C//DTD SVG 1.1//EN" "http://www.w3.org/Graphics/SVG/1.1/DTD/svg11.dtd">
<!-- Uploaded to: SVG Repo, www.svgrepo.com, Transformed by: SVG Repo Mixer Tools -->
<svg fill="#c0c0c0" width="800px" height="800px" viewBox="0 0 512 512" xmlns="http://www.w3.org/2000/svg" stroke="#c0c0c0">
<g id="SVGRepo_bgCarrier" stroke-width="0"/>
<g id="SVGRepo_tracerCarrier" stroke-linecap="round" stroke-linejoin="round"/>
<g id="SVGRepo_iconCarrier">
<title>ionicons-v5-m</title>
<path d="M256,48C141.31,48,48,141.31,48,256s93.31,208,208,208,208-93.31,208-208S370.69,48,256,48Zm75.31,260.69a16,16,0,1,1-22.62,22.62L256,278.63l-52.69,52.68a16,16,0,0,1-22.62-22.62L233.37,256l-52.68-52.69a16,16,0,0,1,22.62-22.62L256,233.37l52.69-52.68a16,16,0,0,1,22.62,22.62L278.63,256Z"/>
</g>
</svg>