<svg xmlns="http://www.w3.org/2000/svg" version="1.1" xmlns:xlink="http://www.w3.org/1999/xlink" width="512" height="512" x="0" y="0" viewBox="0 0 48 48" style="enable-background:new 0 0 512 512" xml:space="preserve" class=""><g><path fill="#d9e1e2" d="M44 33.238V14.762a4 4 0 0 0-2-3.462L26 2.061a4 4 0 0 0-4 0L6 11.3a4 4 0 0 0-2 3.464v18.474A4 4 0 0 0 6 36.7l16 9.237a4 4 0 0 0 4 0L42 36.7a4 4 0 0 0 2-3.462z" opacity="1" data-original="#d9e1e2" class=""></path><path fill="#c9d0d1" d="M26 45.939 42 36.7a4 4 0 0 0 2-3.464V14.762a4 4 0 0 0-2-3.462L26 2.061a3.989 3.989 0 0 0-2-.536v44.95a3.989 3.989 0 0 0 2-.536z" opacity="1" data-original="#c9d0d1"></path><path fill="#ecf0f1" d="M43.45 12.74 24 23.97 4.55 12.74A3.928 3.928 0 0 1 6 11.3l16-9.24a4.022 4.022 0 0 1 4 0l16 9.24a3.928 3.928 0 0 1 1.45 1.44z" opacity="1" data-original="#ecf0f1" class=""></path><path fill="#34495e" d="M26.229 11.126a1.368 1.368 0 0 1 .007 2.588 4.913 4.913 0 0 1-4.461 0c-1.237-.714-1.25-1.874-.021-2.588a4.942 4.942 0 0 1 4.475 0z" opacity="1" data-original="#34495e"></path><path fill="#2c3e50" d="M18.5 35.573a4.09 4.09 0 0 1 1.856 3.214c0 1.189-.84 1.666-1.868 1.072a4.093 4.093 0 0 1-1.862-3.225c.004-1.182.84-1.658 1.874-1.061zM14.009 27.648a4.087 4.087 0 0 1 1.856 3.214c0 1.189-.839 1.666-1.868 1.072a4.094 4.094 0 0 1-1.862-3.226c.003-1.181.839-1.658 1.874-1.06zM9.518 19.722a4.092 4.092 0 0 1 1.855 3.214c0 1.19-.839 1.666-1.868 1.072a4.093 4.093 0 0 1-1.862-3.225c.003-1.183.84-1.658 1.875-1.061z" opacity="1" data-original="#2c3e50"></path><g fill="#21303d"><path d="M30.246 25.511c1.035-.6 1.871-.121 1.874 1.068a4.089 4.089 0 0 1-1.862 3.221c-1.028.594-1.871.121-1.875-1.06a4.105 4.105 0 0 1 1.863-3.229zM37.712 21.2c1.035-.6 1.872-.121 1.875 1.068a4.091 4.091 0 0 1-1.862 3.218c-1.029.594-1.865.117-1.868-1.064a4.092 4.092 0 0 1 1.855-3.222zM30.27 34.091c1.035-.6 1.871-.121 1.875 1.068a4.1 4.1 0 0 1-1.863 3.218c-1.028.593-1.871.121-1.874-1.061a4.1 4.1 0 0 1 1.862-3.225zM37.737 29.78c1.035-.6 1.871-.121 1.874 1.068a4.089 4.089 0 0 1-1.862 3.218c-1.028.594-1.864.117-1.868-1.064a4.093 4.093 0 0 1 1.856-3.222z" fill="#21303d" opacity="1" data-original="#21303d"></path></g></g></svg>