<svg xmlns="http://www.w3.org/2000/svg" version="1.1" xmlns:xlink="http://www.w3.org/1999/xlink" width="512" height="512" x="0" y="0" viewBox="0 0 512 512" style="enable-background:new 0 0 512 512" xml:space="preserve" class=""><g><g data-name="Filled outline"><path fill="#60d1e0" d="M360 256v200a32 32 0 0 1-32 32H184a32 32 0 0 1-32-32V256a80.016 80.016 0 0 1 32-64h144a80.021 80.021 0 0 1 32 64z" opacity="1" data-original="#60d1e0" class=""></path><path fill="#5ac6d4" d="M360 256v200a32 32 0 0 1-32 32h-64.5a32 32 0 0 0 32-32V256a79.987 79.987 0 0 0-32-64H328a80.021 80.021 0 0 1 32 64z" opacity="1" data-original="#5ac6d4" class=""></path><path fill="#348fd9" d="M328 152v40H184v-40a16 16 0 0 1 16-16h112a15.979 15.979 0 0 1 16 16z" opacity="1" data-original="#348fd9"></path><path fill="#ffb531" d="M312 110.83V136H200v-25.17a23.99 23.99 0 0 1 13.27-21.46l8.42-4.21a16.01 16.01 0 0 0 8.68-16.58l-1.84-12.9a28.345 28.345 0 0 1-.28-3.98 27.751 27.751 0 1 1 55.22 3.98l-1.84 12.9a16.01 16.01 0 0 0 8.68 16.58l8.42 4.21A23.99 23.99 0 0 1 312 110.83z" opacity="1" data-original="#ffb531"></path><path fill="#ffa912" d="M312 110.83V136H200v-14.95C240 112 272 88 282.65 44a27.6 27.6 0 0 1 .82 11.68l-1.84 12.9a16.01 16.01 0 0 0 8.68 16.58l8.42 4.21A23.99 23.99 0 0 1 312 110.83z" opacity="1" data-original="#ffa912"></path><path fill="#3086cd" d="M328 152v39.75l-40.99-.26v-40A15.985 15.985 0 0 0 274.96 136H312a15.979 15.979 0 0 1 16 16z" opacity="1" data-original="#3086cd"></path><path d="M336 188.132V152a24.039 24.039 0 0 0-16-22.624v-18.543a31.827 31.827 0 0 0-17.688-28.622L293.893 78a7.989 7.989 0 0 1-4.342-8.287l1.844-12.9a35.754 35.754 0 1 0-70.79 0l1.844 12.905A7.989 7.989 0 0 1 218.107 78l-8.419 4.209A31.827 31.827 0 0 0 192 110.833v18.543A24.039 24.039 0 0 0 176 152v36.132A88.451 88.451 0 0 0 144 256v200a40.045 40.045 0 0 0 40 40h144a40.045 40.045 0 0 0 40-40V256a88.451 88.451 0 0 0-32-67.868zm-128-77.3a15.912 15.912 0 0 1 8.845-14.311l8.419-4.21a23.969 23.969 0 0 0 13.025-24.859l-1.844-12.906a19.754 19.754 0 1 1 39.11 0l-1.844 12.906a23.969 23.969 0 0 0 13.025 24.859l8.419 4.21A15.912 15.912 0 0 1 304 110.833V128h-96zM192 152a8.009 8.009 0 0 1 8-8h112a8.009 8.009 0 0 1 8 8v32H192zm160 304a24.027 24.027 0 0 1-24 24H184a24.027 24.027 0 0 1-24-24V256a72.372 72.372 0 0 1 26.746-56h138.508A72.372 72.372 0 0 1 352 256z" fill="#000000" opacity="1" data-original="#000000"></path><path d="m179.519 236.53 15 5.58a40.184 40.184 0 0 1 7.7-12.787l-11.943-10.646a56.161 56.161 0 0 0-10.757 17.853zM176 256h16v64h-16zM280 272h48v16h-48zM296 304h32v16h-32zM296 240h32v16h-32zM280 336h48v16h-48zM296 368h32v16h-32zM280 400h48v16h-48zM296 432h32v16h-32z" fill="#000000" opacity="1" data-original="#000000"></path></g></g></svg>