<svg xmlns="http://www.w3.org/2000/svg" version="1.1" xmlns:xlink="http://www.w3.org/1999/xlink" width="512" height="512" x="0" y="0" viewBox="0 0 96 96" style="enable-background:new 0 0 512 512" xml:space="preserve" class=""><g><path d="M81.33 13.87c-1.45 0-2.63 1.18-2.63 2.63s1.18 2.63 2.63 2.63 2.63-1.18 2.63-2.63-1.18-2.63-2.63-2.63z" fill="#000000" opacity="1" data-original="#000000" class=""></path><path d="M81.33 7.89c-4.42 0-8.08 3.36-8.55 7.66-6.69.49-11.98 6.07-11.98 12.88v45.22C60.8 82.67 53.47 90 44.45 90S28.1 82.67 28.1 73.65V61.62a4.87 4.87 0 0 0 3.84-4.76v-4.13c8.86-2.1 15.61-9.8 16.14-19.26.02-.44-.14-.88-.44-1.2-.31-.32-.74-.51-1.19-.51h-1.91v-18.2c0-3.42-2.57-6.25-5.88-6.68C38.24 5.23 36.75 4 34.98 4a3.82 3.82 0 1 0 0 7.64c1.73 0 3.17-1.16 3.64-2.74 2.22.39 3.92 2.33 3.92 4.66v18.21h-2.03c-.85 0-1.54.65-1.62 1.5-.5 6.1-5.7 10.87-11.83 10.87s-11.33-4.78-11.83-10.87a1.61 1.61 0 0 0-1.62-1.5h-2.02V13.56c0-2.33 1.7-4.27 3.92-4.66.47 1.58 1.91 2.74 3.64 2.74a3.82 3.82 0 1 0 0-7.64c-1.78 0-3.26 1.23-3.68 2.87-3.31.43-5.87 3.26-5.87 6.68v18.22H7.69c-.45 0-.88.19-1.19.51-.3.32-.46.76-.44 1.2.52 9.46 7.27 17.15 16.13 19.26v4.13a4.88 4.88 0 0 0 3.9 4.77v12.01C26.09 83.77 34.32 92 44.44 92s18.35-8.23 18.35-18.35V28.43c0-5.71 4.41-10.4 10-10.88.52 4.25 4.15 7.56 8.54 7.56 4.75 0 8.61-3.86 8.61-8.61s-3.86-8.61-8.61-8.61zm0 13.24c-2.55 0-4.63-2.08-4.63-4.63s2.08-4.63 4.63-4.63 4.63 2.08 4.63 4.63-2.08 4.63-4.63 4.63z" fill="#000000" opacity="1" data-original="#000000" class=""></path></g></svg>