<svg xmlns="http://www.w3.org/2000/svg" version="1.1" xmlns:xlink="http://www.w3.org/1999/xlink" width="512" height="512" x="0" y="0" viewBox="0 0 512 511" style="enable-background:new 0 0 512 512" xml:space="preserve" class=""><g><path fill="#ee3616" d="M357.379 245.441C344.164 175.723 282.758 123.52 210 123.52c-73.379 0-135.527 53.011-147.816 124.386C25.574 259.773 0 294.191 0 333.52c0 49.628 40.375 90 90 90h286c49.625 0 90-40.372 90-90 0-56.778-52.402-99.918-108.621-88.079zm0 0" opacity="1" data-original="#ee3616" class=""></path><path fill="#cb0010" d="M466 333.52c0 49.632-40.371 90-90 90H210v-300c72.762 0 134.172 52.203 147.379 121.921C413.602 233.601 466 276.742 466 333.52zm0 0" opacity="1" data-original="#cb0010"></path><path fill="#e0f4fe" d="m262.645 275.613-76-45C176.66 224.703 164 231.91 164 243.52v90c0 11.597 12.652 18.824 22.645 12.91l76-45c9.789-5.797 9.8-20.012 0-25.817zm0 0" opacity="1" data-original="#e0f4fe"></path><path fill="#bcdcfe" d="M262.64 301.43 210 332.602v-88.16l52.64 31.167c9.81 5.813 9.79 20.024 0 25.82zm0 0" opacity="1" data-original="#bcdcfe"></path><g fill="#0c3f60"><path d="M361.363 115.523c-6.031-5.68-15.523-5.394-21.203.633-5.683 6.031-5.398 15.524.63 21.203a180.517 180.517 0 0 1 28.257 34.082c4.465 6.985 13.738 9.02 20.719 4.555 6.976-4.46 9.015-13.738 4.55-20.719a210.518 210.518 0 0 0-32.953-39.754zM387.809 58.969c-6.422-5.23-15.871-4.27-21.106 2.156-5.23 6.422-4.265 15.871 2.156 21.105 23.489 19.133 42.907 42.18 57.72 68.5 4.062 7.215 13.206 9.778 20.429 5.715 7.219-4.062 9.777-13.21 5.715-20.43-16.664-29.609-38.504-55.53-64.914-77.046zM510.313 116.395C487.43 72.277 454.18 33.227 414.156 3.465c-6.644-4.942-16.043-3.563-20.984 3.086-4.945 6.648-3.563 16.043 3.086 20.988 36.39 27.063 66.62 62.563 87.422 102.668 3.816 7.352 12.867 10.223 20.222 6.41 7.356-3.812 10.227-12.867 6.41-20.222zm0 0" fill="#0c3f60" opacity="1" data-original="#0c3f60"></path></g></g></svg>