<?xml version="1.0" encoding="UTF-8"?>
<svg version="1.1" xmlns="http://www.w3.org/2000/svg" width="512" height="512">
<path d="M0 0 C1.58460685 -0.00418249 3.1692107 -0.00966498 4.75380909 -0.01631981 C9.0695535 -0.03067319 13.38510529 -0.02656164 17.70085979 -0.019153 C22.37037455 -0.01439841 27.039849 -0.02695132 31.70935059 -0.03717041 C40.84223211 -0.05431892 49.97504472 -0.05520665 59.10793816 -0.04995751 C66.53501034 -0.04590728 73.96206223 -0.04736947 81.38913345 -0.05270576 C82.97796689 -0.0538284 82.97796689 -0.0538284 84.59889797 -0.05497371 C86.7510728 -0.05650527 88.90324762 -0.05804362 91.05542244 -0.05958868 C111.21329586 -0.07329938 131.3711304 -0.06788604 151.52900292 -0.05640347 C169.94694288 -0.04647213 188.36478237 -0.05941261 206.78270684 -0.08333766 C225.7222456 -0.10775379 244.6617376 -0.11733037 263.60129178 -0.11068493 C274.2232163 -0.10719836 284.84506359 -0.10938762 295.46697617 -0.12693596 C304.50880894 -0.14168937 313.55051006 -0.14225239 322.59234034 -0.12486505 C327.19995852 -0.1163786 331.80734184 -0.11414758 336.41494751 -0.1295166 C340.6429787 -0.14344425 344.87057558 -0.138498 349.09858216 -0.11927737 C350.61795257 -0.11554164 352.13735845 -0.11836824 353.65669702 -0.12888902 C367.06784604 -0.2150609 380.3385575 1.74210791 392.28347778 8.20018005 C392.94468628 8.54492371 393.60589478 8.88966736 394.28713989 9.24485779 C399.60252324 12.09082301 404.36144632 15.34317569 408.84597778 19.38768005 C409.43250122 19.88268005 410.01902466 20.37768005 410.62332153 20.88768005 C422.49036658 31.65143974 430.87526502 49.03889566 432.03372264 64.96945882 C432.10799628 67.85438366 432.12221711 70.73340353 432.11340332 73.61927795 C432.11793443 74.71894343 432.12246555 75.8186089 432.12713397 76.95159757 C432.13974884 80.61995088 432.13815944 84.28815517 432.13650513 87.95652771 C432.14249225 90.59358771 432.14924217 93.23063624 432.15686035 95.86769104 C432.17342838 102.27839504 432.17896802 108.68906225 432.18008511 115.09978588 C432.18103773 120.31540896 432.18515871 125.53101999 432.19148636 130.74663925 C432.20908858 145.55861977 432.21832702 160.37057138 432.21682541 175.18256243 C432.21670554 176.37875141 432.21670554 176.37875141 432.21658325 177.59910583 C432.21650149 178.39754765 432.21641973 179.19598947 432.21633549 180.0186265 C432.21552324 192.94749042 432.23464811 205.87623766 432.26285999 218.80506785 C432.29164982 232.10454944 432.30539688 245.40397424 432.30367243 258.70348775 C432.30301056 266.16034779 432.30841348 273.61708556 432.33002853 281.07391739 C432.34832102 287.42487306 432.35252213 293.77565106 432.33900969 300.1266218 C432.33251984 303.36101062 432.33442912 306.59499196 432.34971619 309.82936096 C432.45470016 333.59142714 429.36781708 353.05206598 412.84597778 371.38768005 C412.29296997 372.0218988 411.73996216 372.65611755 411.17019653 373.30955505 C399.80964711 385.56484942 382.10672723 393.39917986 365.52234054 394.54874563 C359.09596317 394.78417849 352.66806067 394.68494734 346.23928833 394.61375427 C344.08750189 394.60146572 341.93570624 394.59071047 339.78390503 394.58135986 C335.17487665 394.5593152 330.56600561 394.52895427 325.95706749 394.49271774 C318.65481603 394.43783126 311.35270879 394.41696001 304.05027771 394.40333557 C301.54186149 394.39826837 299.03344531 394.39317747 296.52502918 394.38806343 C295.26948187 394.38552756 294.01393457 394.38299168 292.72034037 394.38037896 C275.74014158 394.34350737 258.76051083 394.27922841 241.78079224 394.14451599 C230.29783732 394.05368329 218.81570435 394.0094745 207.33238059 394.01750767 C201.26863057 394.01981346 195.20705546 393.99859599 189.14377403 393.91968918 C183.43742598 393.84563874 177.73412362 393.83308908 172.02742004 393.8657589 C169.94617561 393.86700091 167.86477162 393.84637771 165.78402138 393.80100822 C150.90342797 393.49403999 142.5644405 396.65387246 131.60428488 406.7954123 C128.99930897 409.15439677 126.22316151 411.22201346 123.40847778 413.32518005 C118.28959858 417.26474088 113.19145481 421.23041649 108.09597778 425.20018005 C101.50639606 430.33389973 94.88693209 435.42619776 88.24368286 440.49021912 C83.82986885 443.85885747 79.43864696 447.25478028 75.06204224 450.6716156 C71.32959372 453.58502902 67.58895894 456.48781652 63.84597778 459.38768005 C63.10831177 459.96034607 62.37064575 460.53301208 61.61062622 461.12303162 C59.4662698 462.78223095 57.3138037 464.4302661 55.15847778 466.07518005 C54.52353394 466.56832703 53.88859009 467.061474 53.23440552 467.56956482 C47.22733606 472.12095543 41.65075309 475.23911009 33.84597778 474.38768005 C28.17048225 472.34450166 24.54724058 468.79020564 21.84597778 463.38768005 C21.68801734 460.9078325 21.58700976 458.45234037 21.52957153 455.9697113 C21.49833191 454.83333977 21.49833191 454.83333977 21.46646118 453.67401123 C21.40007758 451.18283996 21.34138032 448.6915619 21.28347778 446.20018005 C21.26229889 445.35542114 21.24112 444.51066223 21.21929932 443.64030457 C20.80881075 427.22115051 20.7297666 410.8110024 20.84597778 394.38768005 C19.808927 394.40862732 18.77187622 394.42957458 17.70339966 394.45115662 C13.7746722 394.52476141 9.84600242 394.56990687 5.91677856 394.60740662 C4.23145224 394.62725281 2.54619217 394.65433898 0.8611145 394.68943787 C-13.74442155 394.98555488 -27.49768139 393.65442099 -40.59152222 386.57518005 C-41.25273071 386.2304364 -41.91393921 385.88569275 -42.59518433 385.53050232 C-47.91056767 382.68453709 -52.66949075 379.43218442 -57.15402222 375.38768005 C-57.74054565 374.89268005 -58.32706909 374.39768005 -58.93136597 373.88768005 C-70.79841102 363.12392037 -79.18330945 345.73646445 -80.34176707 329.80590129 C-80.41604071 326.92097645 -80.43026154 324.04195657 -80.42144775 321.15608215 C-80.42597887 320.05641668 -80.43050998 318.95675121 -80.4351784 317.82376254 C-80.44779327 314.15540923 -80.44620388 310.48720494 -80.44454956 306.8188324 C-80.45053669 304.1817724 -80.4572866 301.54472387 -80.46490479 298.90766907 C-80.48147281 292.49696507 -80.48701246 286.08629786 -80.48812954 279.67557423 C-80.48908217 274.45995114 -80.49320315 269.24434012 -80.49953079 264.02872086 C-80.51713302 249.21674034 -80.52637145 234.40478873 -80.52486984 219.59279768 C-80.52478993 218.79533836 -80.52471002 217.99787903 -80.52462769 217.17625427 C-80.52454592 216.37781245 -80.52446416 215.57937064 -80.52437992 214.75673361 C-80.52356768 201.82786969 -80.54269254 188.89912245 -80.57090442 175.97029226 C-80.59969426 162.67081067 -80.61344131 149.37138587 -80.61171687 136.07187235 C-80.61105499 128.61501231 -80.61645792 121.15827455 -80.63807297 113.70144272 C-80.65636545 107.35048704 -80.66056656 100.99970905 -80.64705412 94.64873831 C-80.64056428 91.41434949 -80.64247355 88.18036814 -80.65776062 84.94599915 C-80.76274459 61.18393296 -77.67586152 41.72329413 -61.15402222 23.38768005 C-60.6010144 22.7534613 -60.04800659 22.11924255 -59.47824097 21.46580505 C-43.92538442 4.68802186 -21.88209891 -0.09520778 0 0 Z M-38.52902222 46.57518005 C-44.33352704 53.51198048 -48.26739655 62.79463219 -48.28824329 71.90686798 C-48.29270114 72.81311464 -48.29715898 73.7193613 -48.30175191 74.65306997 C-48.30156755 75.64487973 -48.30138319 76.63668948 -48.30119324 77.65855408 C-48.30486993 78.7152286 -48.30854661 79.77190312 -48.31233472 80.86059809 C-48.32337718 84.41325008 -48.32721639 87.96587283 -48.33102417 91.51853943 C-48.33728847 94.06120395 -48.34393524 96.60386755 -48.35093689 99.14653015 C-48.37016849 106.78606867 -48.3807666 114.42560206 -48.38966468 122.06515861 C-48.39405078 125.66585612 -48.39941683 129.26655217 -48.40465355 132.86724854 C-48.42166593 144.84277287 -48.43615834 156.81829631 -48.44340229 168.79383087 C-48.44531208 171.90063478 -48.44723243 175.00743868 -48.44918823 178.11424255 C-48.44967197 178.88639266 -48.45015571 179.65854277 -48.45065411 180.45409137 C-48.45894781 192.95203837 -48.48427349 205.44988946 -48.51676891 217.94779462 C-48.5498848 230.78944203 -48.56785522 243.63104079 -48.57104653 256.47273111 C-48.57320766 263.67862807 -48.58189771 270.88438524 -48.60750771 278.09024048 C-48.63155978 284.87330414 -48.63501203 291.65607344 -48.62474632 298.4391861 C-48.6242514 300.92394598 -48.63055879 303.40871832 -48.64430237 305.89344025 C-48.732061 322.70507773 -48.69695997 337.56560139 -36.23605347 350.35643005 C-20.23515274 364.96460248 -0.05797918 362.83337085 20.2973938 362.82347107 C23.69801138 362.8270414 27.09784407 362.85435239 30.49832153 362.8837738 C31.53383652 362.87559128 32.5693515 362.86740875 33.63624573 362.85897827 C39.89144137 362.92333964 43.86360754 363.46721346 48.84597778 367.38768005 C52.80677024 372.65544712 52.41131884 378.79323573 52.57644653 385.12986755 C52.61659378 386.25337616 52.65674103 387.37688477 52.69810486 388.53443909 C52.82290067 392.11021929 52.92844478 395.68627018 53.03347778 399.26268005 C53.11488961 401.69241046 53.1975576 404.12209911 53.28152466 406.55174255 C53.48423486 412.49664834 53.67115797 418.44189227 53.84597778 424.38768005 C56.5089004 423.08291106 58.87465115 421.74009922 61.24441528 419.9540863 C61.88145386 419.47568298 62.51849243 418.99727966 63.17483521 418.50437927 C63.85006226 417.99149353 64.52528931 417.47860779 65.22097778 416.95018005 C65.92778687 416.41666931 66.63459595 415.88315857 67.36282349 415.33348083 C73.1294704 410.9660796 78.82344514 406.50997796 84.49832153 402.0243988 C88.19735996 399.10332006 91.93353151 396.23152899 95.67532349 393.36546326 C98.84089997 390.93787393 101.99344927 388.49469364 105.13504028 386.03611755 C112.46042968 380.30477693 119.80283343 374.60319009 127.28347778 369.07518005 C128.21426147 368.38210754 128.21426147 368.38210754 129.16384888 367.67503357 C134.7520221 363.57991364 138.8597231 363.24119011 145.61643982 363.24964905 C146.97754144 363.24541713 146.97754144 363.24541713 148.36614007 363.24109972 C151.4197306 363.23273858 154.47328493 363.23141413 157.52688599 363.22996521 C159.71148277 363.22529787 161.89607859 363.22015443 164.08067322 363.21456909 C168.79349489 363.20327687 173.50631019 363.19484788 178.21914101 363.18844986 C185.67934653 363.17777341 193.13950663 363.15752722 200.59968567 363.1353302 C211.06857832 363.10477364 221.5374726 363.0755538 232.00637817 363.04978943 C233.00317146 363.04733216 233.00317146 363.04733216 234.02010199 363.04482524 C244.09722676 363.02022663 254.1743533 363.00203835 264.25149536 362.98631287 C275.96349656 362.96793344 287.67542225 362.93895165 299.3873679 362.89830816 C305.58278644 362.87728591 311.77810998 362.86178774 317.97356606 362.85950089 C323.81027227 362.85734411 329.64678106 362.84136999 335.48342705 362.81511116 C337.61740147 362.80795456 339.75139991 362.80579938 341.88538361 362.80921364 C359.24988926 362.83254288 374.48960126 362.51896801 388.12722778 350.3525238 C395.167182 343.11555594 399.95684419 333.07695295 399.98019886 322.86849213 C399.98688563 321.50912214 399.98688563 321.50912214 399.99370748 320.12229013 C399.99352312 319.13048038 399.99333875 318.13867063 399.9931488 317.11680603 C399.99866384 315.53179425 399.99866384 315.53179425 400.00429028 313.91476202 C400.01533275 310.36211002 400.01917196 306.80948727 400.02297974 303.25682068 C400.02924404 300.71415616 400.03589081 298.17149255 400.04289246 295.62882996 C400.06212405 287.98929144 400.07272217 280.34975805 400.08162025 272.7102015 C400.08600634 269.10950399 400.09137239 265.50880793 400.09660912 261.90811157 C400.1136215 249.93258723 400.12811391 237.9570638 400.13535786 225.98152924 C400.13726765 222.87472533 400.139188 219.76792143 400.1411438 216.66111755 C400.14162754 215.88896744 400.14211128 215.11681733 400.14260968 214.32126874 C400.15090338 201.82332173 400.17622906 189.32547065 400.20872448 176.82756549 C400.24184036 163.98591808 400.25981079 151.14431932 400.2630021 138.30262899 C400.26516323 131.09673204 400.27385327 123.89097487 400.29946327 116.68511963 C400.32351534 109.90205597 400.3269676 103.11928667 400.31670189 96.33617401 C400.31620697 93.85141413 400.32251436 91.36664179 400.33625793 88.88191986 C400.42401656 72.07028238 400.38891553 57.20975872 387.92800903 44.41893005 C375.51834665 33.08941236 361.54053796 31.92495632 345.20999146 32.00672913 C343.68170686 32.00326395 342.15342477 31.99849367 340.62514782 31.99254739 C336.46515558 31.98012565 332.30537213 31.9861671 328.14537954 31.99550605 C323.64359784 32.00233273 319.14185043 31.99179748 314.64007568 31.98356628 C305.83672702 31.97026516 297.03345534 31.9730905 288.23010373 31.98180421 C281.07189381 31.98859464 273.91370538 31.9894916 266.75549316 31.98623276 C265.73454848 31.98577306 264.71360381 31.98531336 263.66172141 31.98483973 C261.58733312 31.9838805 259.51294483 31.98290786 257.43855655 31.98192196 C238.01229435 31.97337867 218.5860747 31.98318552 199.15981948 31.99932306 C182.51123897 32.01272526 165.86272123 32.01039687 149.21414185 31.99656677 C129.85475921 31.98049219 110.49541381 31.97420254 91.13602543 31.98340356 C89.06950443 31.98435916 87.00298342 31.98530227 84.9364624 31.98623276 C83.9198414 31.98669558 82.9032204 31.98715841 81.8557927 31.98763526 C74.71077812 31.99021952 67.56578727 31.98586635 60.42077637 31.9787941 C51.70681735 31.97035801 42.99293935 31.97270345 34.27898955 31.98863633 C29.83772816 31.99649073 25.39660157 31.99965925 20.95534134 31.98968887 C16.88167583 31.98068241 12.80826881 31.98577165 8.73462641 32.00162153 C7.26912839 32.00494434 5.80360805 32.00333236 4.33812463 31.99599417 C-12.41729057 31.91859739 -26.47419536 34.18299797 -38.52902222 46.57518005 Z " fill="#000000" transform="translate(80.15402221679688,18.612319946289063)"/>
</svg>
