<svg xmlns="http://www.w3.org/2000/svg" version="1.1" xmlns:xlink="http://www.w3.org/1999/xlink" width="512" height="512" x="0" y="0" viewBox="0 0 24 24" style="enable-background:new 0 0 512 512" xml:space="preserve" class=""><g><g fill="#000"><path d="M14.433 2.099A1 1 0 0 1 15 3v10.586l1.063 1.063a.999.999 0 0 1 .162-.282c.458-.56.775-1.396.775-2.367s-.317-1.807-.775-2.367a1 1 0 1 1 1.55-1.266C18.548 9.316 19 10.61 19 12s-.451 2.684-1.226 3.633a.995.995 0 0 1-.423.304l1.116 1.116C19.403 15.758 20 13.985 20 12c0-2.151-.7-4.053-1.775-5.367a1 1 0 1 1 1.55-1.266C21.164 7.07 22 9.43 22 12c0 2.496-.787 4.792-2.105 6.481l1.812 1.812a1 1 0 0 1-1.414 1.414l-18-18a1 1 0 0 1 1.414-1.414L7.414 6h.884a1 1 0 0 0 .625-.22l4.452-3.56a1 1 0 0 1 1.058-.121zM3.192 6.606 15 18.414V21a1 1 0 0 1-1.625.78l-4.452-3.56a1 1 0 0 0-.625-.22H5a3 3 0 0 1-3-3V9c0-.978.468-1.846 1.192-2.394z" fill="#000000" opacity="1" data-original="#000000" class=""></path></g></g></svg>