<?xml version="1.0" encoding="utf-8"?><!-- Uploaded to: SVG Repo, www.svgrepo.com, Generator: SVG Repo Mixer Tools -->
<svg width="800px" height="800px" viewBox="0 -0.5 25 25" fill="none" xmlns="http://www.w3.org/2000/svg">
<path fill-rule="evenodd" clip-rule="evenodd" d="M17.5004 17.2342C17.4691 16.3071 16.6977 15.5777 15.7703 15.5986C14.8429 15.6194 14.105 16.3826 14.1154 17.3102C14.1259 18.2377 14.8808 18.9842 15.8084 18.9842C16.7587 18.9677 17.516 18.1845 17.5004 17.2342Z" stroke="#000000" stroke-width="1.5" stroke-linecap="round" stroke-linejoin="round"/>
<path fill-rule="evenodd" clip-rule="evenodd" d="M11.5774 11.9841C11.6007 13.41 10.4642 14.585 9.03836 14.6091C7.6129 14.5845 6.47696 13.4096 6.50035 11.9841C6.47696 10.5587 7.6129 9.38378 9.03836 9.35913C10.4642 9.38323 11.6007 10.5583 11.5774 11.9841Z" stroke="#000000" stroke-width="1.5" stroke-linecap="round" stroke-linejoin="round"/>
<path fill-rule="evenodd" clip-rule="evenodd" d="M16.6544 6.73414C16.6693 7.34862 16.35 7.92293 15.8202 8.23456C15.2904 8.54619 14.6333 8.54619 14.1035 8.23456C13.5737 7.92293 13.2544 7.34862 13.2694 6.73414C13.2544 6.11966 13.5737 5.54536 14.1035 5.23372C14.6333 4.92209 15.2904 4.92209 15.8202 5.23372C16.35 5.54536 16.6693 6.11966 16.6544 6.73414Z" stroke="#000000" stroke-width="1.5" stroke-linecap="round" stroke-linejoin="round"/>
<path d="M14.1046 16.688C14.4426 16.9275 14.9107 16.8478 15.1502 16.5099C15.3898 16.1719 15.31 15.7038 14.9721 15.4643L14.1046 16.688ZM11.4721 12.9833C11.1342 12.7437 10.666 12.8235 10.4265 13.1614C10.187 13.4993 10.2667 13.9675 10.6046 14.207L11.4721 12.9833ZM14.2009 8.44267C14.5033 8.15959 14.519 7.68498 14.2359 7.38259C13.9528 7.08019 13.4782 7.06454 13.1758 7.34761L14.2009 8.44267ZM10.5298 9.82461C10.2274 10.1077 10.2118 10.5823 10.4948 10.8847C10.7779 11.1871 11.2525 11.2027 11.5549 10.9197L10.5298 9.82461ZM14.9721 15.4643L11.4721 12.9833L10.6046 14.207L14.1046 16.688L14.9721 15.4643ZM13.1758 7.34761L10.5298 9.82461L11.5549 10.9197L14.2009 8.44267L13.1758 7.34761Z" fill="#000000"/>
</svg>