<svg xmlns="http://www.w3.org/2000/svg" version="1.1" xmlns:xlink="http://www.w3.org/1999/xlink" width="512" height="512" x="0" y="0" viewBox="0 0 512 512" style="enable-background:new 0 0 512 512" xml:space="preserve" class=""><g><path fill="#3397e8" d="M328 224h112v112H328z" opacity="1" data-original="#3397e8"></path><path fill="#ffb632" d="M384 336h112v112H384z" opacity="1" data-original="#ffb632"></path><circle cx="384" cy="280" r="24" fill="#e9eef2" opacity="1" data-original="#e9eef2"></circle><path fill="#35a872" d="M272 336h112v112H272z" opacity="1" data-original="#35a872"></path><path fill="#e9eef2" d="M304 368h48v48h-48z" opacity="1" data-original="#e9eef2"></path><path fill="#eb423f" d="M440 224H328l56-80z" opacity="1" data-original="#eb423f"></path><path fill="#e9eef2" d="M464 416h-48l24-48z" opacity="1" data-original="#e9eef2"></path><path fill="#95573a" d="M56 384a40.005 40.005 0 0 1-39.91-37.33q.18-5.625.77-10.98C25.2 258.74 93.26 224 176 224s150.8 34.74 159.14 111.69q.585 5.355.77 10.98A40.005 40.005 0 0 1 296 384z" opacity="1" data-original="#95573a"></path><ellipse cx="176" cy="360" fill="#a36f58" rx="80" ry="112" opacity="1" data-original="#a36f58"></ellipse><circle cx="272" cy="72" r="48" fill="#95573a" opacity="1" data-original="#95573a"></circle><circle cx="80" cy="72" r="48" fill="#95573a" opacity="1" data-original="#95573a"></circle><ellipse cx="176" cy="160" fill="#ad6643" rx="120" ry="112" opacity="1" data-original="#ad6643" class=""></ellipse><ellipse cx="96" cy="424" fill="#7a4830" rx="56" ry="64" opacity="1" data-original="#7a4830"></ellipse><ellipse cx="256" cy="424" fill="#7a4830" rx="56" ry="64" opacity="1" data-original="#7a4830"></ellipse><path d="M175.91 240c35.29 0 64-23.327 64-52a8 8 0 0 0-16 0c0 17.806-17.329 32.625-40 35.49V198.1a18.079 18.079 0 0 0 2.428-1.459l13.577-9.689a19.373 19.373 0 0 0 7.994-15.794c0-10.562-8.264-19.155-18.422-19.155h-27.155c-10.158 0-18.422 8.593-18.422 19.155a19.373 19.373 0 0 0 7.994 15.794l13.577 9.689a17.986 17.986 0 0 0 2.429 1.459v25.39c-22.671-2.865-40-17.684-40-35.49a8 8 0 0 0-16 0c0 28.673 28.71 52 64 52zm-14.71-66.074a3.407 3.407 0 0 1-1.288-2.771c0-1.71 1.11-3.155 2.422-3.155h27.156c1.313 0 2.422 1.445 2.422 3.155a3.408 3.408 0 0 1-1.289 2.771l-13.577 9.688a1.859 1.859 0 0 1-2.269 0z" fill="#000000" opacity="1" data-original="#000000" class=""></path><circle cx="223.91" cy="144" r="8" fill="#000000" opacity="1" data-original="#000000" class=""></circle><circle cx="127.91" cy="144" r="8" fill="#000000" opacity="1" data-original="#000000" class=""></circle><path d="M384 312a32 32 0 1 0-32-32 32.036 32.036 0 0 0 32 32zm0-48a16 16 0 1 1-16 16 16.019 16.019 0 0 1 16-16z" fill="#000000" opacity="1" data-original="#000000" class=""></path><path d="M496 328h-48V224a7.957 7.957 0 0 0-1.45-4.585l-56-80a8 8 0 0 0-13.108 0l-56 80A7.957 7.957 0 0 0 320 224v50.063c-10.955-14.728-25.571-26.948-43.618-36.374C294.2 216.745 303.91 189.531 303.91 160a126.381 126.381 0 0 0-5.867-38.468 56 56 0 1 0-76.12-74.785A152.28 152.28 0 0 0 175.91 40a152.242 152.242 0 0 0-46.01 6.748 56 56 0 1 0-76.121 74.784A126.381 126.381 0 0 0 47.91 160c0 29.531 9.714 56.746 27.529 77.689-38.948 20.342-61.912 53.705-66.623 97.139-.01.1-.02.2-.027.3L8.02 346.11a7.69 7.69 0 0 0 0 1.084 48.1 48.1 0 0 0 31.946 42.068A78.657 78.657 0 0 0 32 424c0 39.7 28.71 72 64 72 19 0 36.083-9.372 47.815-24.212a67.177 67.177 0 0 0 64.37 0C219.917 486.628 237 496 256 496c25.076 0 46.817-16.316 57.309-40H496a8 8 0 0 0 8-8V336a8 8 0 0 0-8-8zM384 157.95 424.635 216h-81.27zM336 232h96v96h-89.917A130.231 130.231 0 0 0 336 304zm-8.92 104.4.72 10.253A32.064 32.064 0 0 1 303 375.2c-10.029-12.215-23.76-20.512-39.169-22.638-1.457-32.539-12.425-62.563-30.345-83.583a116.946 116.946 0 0 0 31.047-19.324c36.645 17.554 58.237 47.437 62.547 86.745zM271.91 32a40 40 0 0 1 20.18 74.544 111.67 111.67 0 0 0-22.4-31.444 115.713 115.713 0 0 0-32.737-22.546A40.089 40.089 0 0 1 271.91 32zm-232 40a40 40 0 0 1 74.961-19.446A115.682 115.682 0 0 0 82.134 75.1a111.642 111.642 0 0 0-22.4 31.443A40.09 40.09 0 0 1 39.91 72zm24 88c0-28.722 10.456-54.821 29.443-73.492C113.649 66.55 142.2 56 175.91 56s62.261 10.55 82.558 30.509c18.986 18.67 29.442 44.769 29.442 73.491s-10.456 54.821-29.442 73.491C238.171 253.45 209.623 264 175.91 264s-62.261-10.55-82.557-30.508C74.366 214.821 63.91 188.722 63.91 160zM24.021 346.657l.718-10.254c4.311-39.312 25.9-69.195 62.547-86.751a116.968 116.968 0 0 0 31.195 19.386c-17.867 21.026-28.847 51.138-30.312 83.52C72.746 354.686 59 363 48.971 375.23a32.063 32.063 0 0 1-24.95-28.573zM96 480c-26.468 0-48-25.121-48-56s21.532-56 48-56 48 25.121 48 56-21.532 56-48 56zm80-16a51.7 51.7 0 0 1-23.68-5.83A78.736 78.736 0 0 0 160 424c0-36.578-24.377-66.851-55.812-71.39 1.538-31.2 12.747-59.72 30.746-77.876A154.918 154.918 0 0 0 175.91 280a154.862 154.862 0 0 0 41.111-5.3c18.056 18.151 29.265 46.558 30.794 77.912C216.379 357.147 192 387.42 192 424a78.736 78.736 0 0 0 7.68 34.17A51.7 51.7 0 0 1 176 464zm80 16c-26.468 0-48-25.121-48-56s21.532-56 48-56 48 25.121 48 56-21.532 56-48 56zm56.007-90.794A48.3 48.3 0 0 0 331.641 376H344v32h-25.613a77.169 77.169 0 0 0-6.38-18.794zM376 440h-57.613A80.464 80.464 0 0 0 320 424h32a8 8 0 0 0 8-8v-48a8 8 0 0 0-8-8h-10.843a47.615 47.615 0 0 0 2.646-12.806 8 8 0 0 0 0-1.084l-.148-2.11H376zm112 0h-96v-96h96z" fill="#000000" opacity="1" data-original="#000000" class=""></path><path d="M416 424h48a8 8 0 0 0 7.155-11.578l-24-48a8 8 0 0 0-14.31 0l-24 48A8 8 0 0 0 416 424zm24-38.111L451.056 408h-22.112z" fill="#000000" opacity="1" data-original="#000000" class=""></path></g></svg>