<svg xmlns="http://www.w3.org/2000/svg" version="1.1" xmlns:xlink="http://www.w3.org/1999/xlink" width="512" height="512" x="0" y="0" viewBox="0 0 48 48" style="enable-background:new 0 0 512 512" xml:space="preserve" class=""><g><path d="M44.494 22.881a2.968 2.968 0 0 0-3.006.01L36 26.093v10.815l5.488 3.202c.473.276.992.414 1.512.414a2.99 2.99 0 0 0 1.494-.403A2.969 2.969 0 0 0 46 37.52V25.484c0-1.087-.563-2.06-1.506-2.601zM30.602 21.287A8.478 8.478 0 0 0 34 14.5a8.5 8.5 0 0 0-17 0 8.479 8.479 0 0 0 3.028 6.5h-5.441A7.474 7.474 0 0 0 17 15.5a7.5 7.5 0 0 0-15 0 7.481 7.481 0 0 0 2.949 5.952C3.215 22.238 2 23.976 2 26v11c0 2.757 2.243 5 5 5h22c2.757 0 5-2.243 5-5V26c0-2.194-1.429-4.041-3.398-4.713zM6.5 15.5a3 3 0 1 1 6 0 3 3 0 0 1-6 0zM12 37H8a1 1 0 0 1 0-2h4a1 1 0 0 1 0 2zm13.5-18.5a4 4 0 1 1 0-8 4 4 0 0 1 0 8z" fill="#000000" opacity="1" data-original="#000000" class=""></path></g></svg>